<?xml version="1.0" encoding="utf-8"?>
<!-- Generator: Adobe Illustrator 22.1.0, SVG Export Plug-In . SVG Version: 6.00 Build 0)  -->
<svg version="1.1" id="Layer_1" xmlns="http://www.w3.org/2000/svg" xmlns:xlink="http://www.w3.org/1999/xlink" x="0px" y="0px"
	 viewBox="0 0 17.8 21.4" style="enable-background:new 0 0 17.8 21.4;" xml:space="preserve">
<style type="text/css">
	.st0{fill:#4F4F4F;}
	.st1{fill:#C6C6C6;}
</style>
<path class="st0" d="M8.9,21.4c-2.4,0-4.6-0.9-6.3-2.6C0.9,17.2,0,14.9,0,12.6S0.9,8,2.6,6.3L8.9,0l6.3,6.3c3.5,3.5,3.5,9.1,0,12.6
	C13.5,20.5,11.3,21.4,8.9,21.4z M8.9,2.8L4,7.7c-1.3,1.3-2,3-2,4.9c0,1.8,0.7,3.6,2,4.9s3,2,4.9,2c1.8,0,3.6-0.7,4.9-2
	c2.7-2.7,2.7-7,0-9.7L8.9,2.8z"/>
<path class="st1" d="M8.9,16.7c-1.1,0-2.2-0.4-3-1.2l1.4-1.4c0.9,0.9,2.3,0.9,3.2,0c0.4-0.4,0.7-1,0.7-1.6c0-0.6-0.2-1.2-0.7-1.6
	l1.4-1.4c0.8,0.8,1.2,1.9,1.2,3c0,1.1-0.4,2.2-1.2,3C11.1,16.3,10,16.7,8.9,16.7z"/>
</svg>
