<?xml version="1.0" encoding="utf-8"?>
<!-- Generator: Adobe Illustrator 22.1.0, SVG Export Plug-In . SVG Version: 6.00 Build 0)  -->
<svg version="1.1" id="Layer_1" xmlns="http://www.w3.org/2000/svg" xmlns:xlink="http://www.w3.org/1999/xlink" x="0px" y="0px"
	 viewBox="0 0 26 31" style="enable-background:new 0 0 26 31;" xml:space="preserve">
<style type="text/css">
	.st0{fill:#122E42;}
	.st1{fill:#47BAFF;}
</style>
<g>
	<polygon class="st0" points="25,9 25,30 1,30 1,1 17,1 	"/>
	<path class="st1" d="M26,31H0V0h17.4L26,8.6V31z M2,29h22V9.4L16.6,2H2V29z"/>
</g>
<polygon class="st1" points="25,10 16,10 16,1 18,1 18,8 25,8 "/>
<polygon class="st1" points="17,16 14,16 14,13 12,13 12,16 9,16 9,18 12,18 12,21 14,21 14,18 17,18 "/>
</svg>
