<?xml version="1.0" encoding="utf-8"?>
<!-- Generator: Adobe Illustrator 22.1.0, SVG Export Plug-In . SVG Version: 6.00 Build 0)  -->
<svg version="1.1" id="Layer_1" xmlns="http://www.w3.org/2000/svg" xmlns:xlink="http://www.w3.org/1999/xlink" x="0px" y="0px"
	 viewBox="0 0 18 18" style="enable-background:new 0 0 18 18;" xml:space="preserve">
<style type="text/css">
	.st0{fill:#4F4F4F;}
	.st1{fill:#C6C6C6;}
</style>
<polygon class="st0" points="2,8 0,8 0,0 8,0 8,2 2,2 "/>
<polygon class="st0" points="18,18 10,18 10,16 16,16 16,10 18,10 "/>
<polygon class="st1" points="11,0 11,2 14.6,2 10.3,6.3 11.7,7.7 16,3.4 16,7 18,7 18,0 "/>
<polygon class="st1" points="7.7,11.7 6.3,10.3 2,14.6 2,11 0,11 0,18 7,18 7,16 3.4,16 "/>
</svg>
