<?xml version="1.0" encoding="utf-8"?>
<!-- Generator: Adobe Illustrator 22.1.0, SVG Export Plug-In . SVG Version: 6.00 Build 0)  -->
<svg version="1.1" id="Layer_1" xmlns="http://www.w3.org/2000/svg" xmlns:xlink="http://www.w3.org/1999/xlink" x="0px" y="0px"
	 viewBox="0 0 86.5 69.5" style="enable-background:new 0 0 86.5 69.5;" xml:space="preserve">
<style type="text/css">
	.st0{fill:#929292;}
</style>
<g>
	<path class="st0" d="M76.7,67c0,0.8-0.7,1.5-1.5,1.5H2.5C1.7,68.5,1,67.8,1,67V11.4c0-0.8,0.7-1.5,1.5-1.5h56v-1h-56
		C1.1,8.9,0,10,0,11.4V67c0,1.4,1.1,2.5,2.5,2.5h72.7c1.4,0,2.5-1.1,2.5-2.5V28.1h-1V67z"/>
	<polygon class="st0" points="86.5,8.9 77.7,8.9 77.7,0 76.7,0 76.7,8.9 67.8,8.9 67.8,9.9 76.7,9.9 76.7,18.7 77.7,18.7 77.7,9.9 
		86.5,9.9 	"/>
	<path class="st0" d="M34.6,42.5L28.9,34L16.6,52.5H61l-15-27L34.6,42.5z M18.5,51.5l10.4-15.6l5.7,8.5l11.3-17l13.4,24.1H18.5z"/>
</g>
</svg>
