<?xml version="1.0" encoding="utf-8"?>
<!-- Generator: Adobe Illustrator 22.1.0, SVG Export Plug-In . SVG Version: 6.00 Build 0)  -->
<svg version="1.1" id="Layer_1" xmlns="http://www.w3.org/2000/svg" xmlns:xlink="http://www.w3.org/1999/xlink" x="0px" y="0px"
	 viewBox="0 0 32 26" style="enable-background:new 0 0 32 26;" xml:space="preserve">
<style type="text/css">
	.st0{fill:#48B9FF;}
</style>
<g>
	<polygon class="st0" points="27,24 2,24 2,5 20,5 20,3 0,3 0,26 29,26 29,12 27,12 	"/>
	<polygon class="st0" points="32,3 29,3 29,0 27,0 27,3 24,3 24,5 27,5 27,8 29,8 29,5 32,5 	"/>
	<path class="st0" d="M13,14.2l-2-3L5.1,20h18.6L17.1,8.1L13,14.2z M8.9,18l2.1-3.2l2,3l3.9-5.9l3.4,6.1H8.9z"/>
</g>
</svg>
