<?xml version="1.0" encoding="utf-8"?>
<!-- Generator: Adobe Illustrator 22.1.0, SVG Export Plug-In . SVG Version: 6.00 Build 0)  -->
<svg version="1.1" id="Layer_1" xmlns="http://www.w3.org/2000/svg" xmlns:xlink="http://www.w3.org/1999/xlink" x="0px" y="0px"
	 viewBox="0 0 350 350" style="enable-background:new 0 0 350 350;" xml:space="preserve">
<g>
	<path d="M175.7,127.4c-26.4,0-47.8,21.4-47.8,47.8c0,26.4,21.4,47.8,47.8,47.8c26.4,0,47.8-21.4,47.8-47.8
		C223.5,148.8,202,127.4,175.7,127.4z M175.7,199.1c-13.2,0-23.9-10.7-23.9-23.9c0-13.2,10.7-23.9,23.9-23.9
		c13.2,0,23.9,10.7,23.9,23.9C199.6,188.3,188.9,199.1,175.7,199.1z"/>
	<polygon points="109.4,117 51.2,175.2 109.4,233.3 126.3,216.4 85,175.2 126.3,133.9 	"/>
	<polygon points="242.9,117 226,133.9 267.3,175.2 226,216.4 242.9,233.3 301.1,175.2 	"/>
</g>
</svg>
